<?xml version="1.0" encoding="UTF-8"?>
<svg xmlns="http://www.w3.org/2000/svg" width="512" height="512" viewBox="0 0 512 512">
  <defs>
    <radialGradient id="bg" cx="50%" cy="34%" r="72%">
      <stop offset="0%" stop-color="#14101a"/>
      <stop offset="55%" stop-color="#0b0b12"/>
      <stop offset="100%" stop-color="#050508"/>
    </radialGradient>
    <radialGradient id="glow" cx="52%" cy="46%" r="34%">
      <stop offset="0%" stop-color="#ff3b5c" stop-opacity="0.22"/>
      <stop offset="100%" stop-color="#ff3b5c" stop-opacity="0"/>
    </radialGradient>
    <linearGradient id="card" x1="0%" y1="0%" x2="100%" y2="100%">
      <stop offset="0%" stop-color="#12121c"/>
      <stop offset="100%" stop-color="#09090f"/>
    </linearGradient>
    <linearGradient id="bar" x1="0%" y1="0%" x2="0%" y2="100%">
      <stop offset="0%" stop-color="#ff9db0"/>
      <stop offset="45%" stop-color="#ff7a93"/>
      <stop offset="100%" stop-color="#ff3b5c"/>
    </linearGradient>
    <radialGradient id="dot" cx="50%" cy="50%" r="50%">
      <stop offset="0%" stop-color="#ffffff"/>
      <stop offset="35%" stop-color="#ff7a93"/>
      <stop offset="100%" stop-color="#ff3b5c"/>
    </radialGradient>
  </defs>
  <rect width="512" height="512" fill="url(#bg)"/>
  <rect width="512" height="512" fill="url(#glow)"/>
  <rect x="56.32" y="56.32" width="399.36" height="399.36" rx="111.8" fill="url(#card)" stroke="rgba(255,255,255,0.08)" stroke-width="2.05"/>
  <circle cx="256" cy="263.98720000000003" r="123.8" fill="none" stroke="#ff3b5c" stroke-opacity="0.16" stroke-width="2.05"/>
  <circle cx="256" cy="263.98720000000003" r="95.8" fill="none" stroke="#ff3b5c" stroke-opacity="0.28" stroke-width="2.05"/>
  <rect x="165.1" y="208.1" width="22.0" height="111.8" rx="11.0" fill="url(#bar)"/><rect x="205.1" y="172.1" width="22.0" height="183.7" rx="11.0" fill="url(#bar)"/><rect x="245.0" y="140.2" width="22.0" height="247.6" rx="11.0" fill="url(#bar)"/><rect x="285.0" y="172.1" width="22.0" height="183.7" rx="11.0" fill="url(#bar)"/><rect x="324.9" y="208.1" width="22.0" height="111.8" rx="11.0" fill="url(#bar)"/><circle cx="256" cy="263.98720000000003" r="18.0" fill="url(#dot)"/>
  
    <g>
      <rect x="279.96160000000003" y="287.9488" width="143.7696" height="119.80799999999999" rx="17.3" fill="rgba(255,255,255,0.06)" stroke="rgba(255,255,255,0.12)" stroke-width="1"/>
      <rect x="279.96160000000003" y="287.9488" width="143.7696" height="26.35776" rx="17.3" fill="rgba(255,59,92,0.25)"/>
      <rect x="279.96160000000003" y="312.30656" width="143.7696" height="2" fill="rgba(255,59,92,0.15)"/>
      <circle cx="295.8" cy="326.9" r="5.8" fill="#2dd4a8" opacity="0.9"/><circle cx="329.8" cy="326.9" r="5.8" fill="#ff7a93" opacity="0.9"/><circle cx="363.7" cy="326.9" r="5.8" fill="#ff3b5c" opacity="0.9"/><circle cx="295.8" cy="355.3" r="5.8" fill="#2dd4a8" opacity="0.9"/><circle cx="329.8" cy="355.3" r="5.8" fill="#ff7a93" opacity="0.9"/><circle cx="363.7" cy="355.3" r="5.8" fill="#ff3b5c" opacity="0.9"/><circle cx="329.8" cy="383.8" r="5.8" fill="#2dd4a8" opacity="0.9"/><circle cx="397.7" cy="383.8" r="5.8" fill="#ff7a93" opacity="0.9"/>
    </g>
    <g>
      <path d="M 104.2432 88.2688 H 216.06400000000002 Q 240.02560000000003 88.2688 240.02560000000003 105.84064000000001 V 154.16320000000002 Q 240.02560000000003 176.128 216.06400000000002 176.128 M112.2304 176.128 L99.45088 206.87872 L140.98432000000003 176.128 Z" fill="rgba(255,255,255,0.1)" stroke="rgba(255,255,255,0.18)" stroke-width="1"/>
      <circle cx="125.00992000000001" cy="130.441216" r="7.907328" fill="#ff9db0" opacity="0.85"/>
      <circle cx="160.1536" cy="130.441216" r="7.907328" fill="#ff7a93" opacity="0.7"/>
      <circle cx="195.29728" cy="130.441216" r="7.907328" fill="#ff3b5c" opacity="0.55"/>
    </g>
</svg>